<?xml version="1.0" encoding="utf-8"?>
<!-- Generator: Adobe Illustrator 16.0.0, SVG Export Plug-In . SVG Version: 6.00 Build 0)  -->
<!DOCTYPE svg PUBLIC "-//W3C//DTD SVG 1.1//EN" "http://www.w3.org/Graphics/SVG/1.1/DTD/svg11.dtd">
<svg version="1.1" id="Layer_1" xmlns="http://www.w3.org/2000/svg" xmlns:xlink="http://www.w3.org/1999/xlink" x="0px" y="0px"
	 width="36.465px" height="99.52px" viewBox="0 0 36.465 99.52" enable-background="new 0 0 36.465 99.52" xml:space="preserve">
<g>

	<g>
		<g>
			<g>
				<path fill="#FFB524" d="M29.129,97.564L29.129,97.564c-7.14,1.898-14.653,1.898-21.787,0l0,0
					c-2.182-0.578-3.697-7.039-3.697-9.291V36.797c0-3.055,1.863-8.791,4.695-9.924l0,0c6.35-2.535,13.436-2.535,19.792,0l0,0
					c2.832,1.133,4.688,6.869,4.688,9.924v51.477C32.821,90.525,31.303,96.986,29.129,97.564z"/>
				<path fill="#FFC424" d="M28.624,95.93L28.624,95.93c-6.807,1.807-13.976,1.807-20.782,0l0,0
					c-2.078-0.551-3.525-6.713-3.525-8.863V37.951c0-2.91,1.773-8.385,4.48-9.465l0,0c6.061-2.422,12.818-2.422,18.878,0l0,0
					c2.7,1.08,4.474,6.555,4.474,9.465v49.113C32.15,89.217,30.701,95.379,28.624,95.93z"/>
				<path fill="#45474A" d="M3.971,46.9l-2.972,1.682c-0.505,0.283-0.817,0.82-0.817,1.398l0,0c0,0.232,0.223,0.398,0.443,0.34
					l3.346-0.914V46.9z"/>
				<path fill="#45474A" d="M32.495,46.9l2.978,1.682c0.499,0.283,0.811,0.82,0.811,1.398l0,0c0,0.232-0.214,0.398-0.442,0.34
					l-3.346-0.914V46.9z"/>
			</g>
			<g>
				<path fill="#45474A" d="M5.274,67.008c0,0.09,0,0.18,0,0.27c0,7.195,0.449,14.375,0.449,14.375s1.793-5.234,1.793-7.18v-7.045
					C6.776,67.254,6.028,67.111,5.274,67.008z"/>
				<path fill="#45474A" d="M7.516,66.598v-6.563c0-1.121-1.793-7.133-1.793-7.133S5.328,59.215,5.28,65.932
					C6.033,66.117,6.776,66.35,7.516,66.598z"/>
				<path fill="#45474A" d="M31.194,67.008c0,0.09,0,0.18,0,0.27c0,7.195-0.443,14.375-0.443,14.375s-1.801-5.234-1.801-7.18v-7.045
					C29.691,67.254,30.446,67.111,31.194,67.008z"/>
				<path fill="#45474A" d="M28.949,66.598v-6.563c0-1.121,1.801-7.133,1.801-7.133s0.388,6.313,0.443,13.029
					C30.431,66.117,29.691,66.35,28.949,66.598z"/>
				<path fill="#45474A" d="M8.34,58.09L5.647,47.691c0,0,2.838-3.965,12.59-3.965c9.744,0,12.583,3.965,12.583,3.965L28.132,58.09
					c0,0-5.43-1.27-9.896-1.27C13.77,56.82,8.34,58.09,8.34,58.09z M27.287,81.109c-1.634,0.377-5.796,1.145-9.051,1.145
					c-3.254,0-7.424-0.768-9.053-1.145c-0.441-0.1-0.857,0.225-0.879,0.672l-0.324,9.484c-0.008,0.26,0.123,0.506,0.346,0.637
					c3.81,2.254,9.91,1.943,9.91,1.943s6.102,0.311,9.902-1.943c0.229-0.131,0.36-0.377,0.348-0.637l-0.326-9.484
					C28.147,81.332,27.724,81.01,27.287,81.109z"/>
				<path fill="#FFFFFF" d="M5.647,32.104c2.229-0.557,3.67-3.098,3.58-3.76c-0.645,0.354-1.238,0.787-1.766,1.318
					C6.768,30.355,6.158,31.188,5.647,32.104z"/>
				<path fill="#FFFFFF" d="M30.82,32.104c-2.229-0.557-3.67-3.098-3.58-3.76c0.644,0.354,1.24,0.787,1.772,1.318
					C29.704,30.355,30.306,31.188,30.82,32.104z"/>
			</g>
			<g>
				<path fill="#F3482A" d="M9.219,96.535c-0.824-0.283-1.592-0.795-2.216-1.48c-0.166-0.178-0.325-0.371-0.526-0.482
					c-0.139-0.074-0.311-0.104-0.457-0.055c0.881,1.371,2.223,2.326,3.769,2.563c0-0.008,0-0.012,0-0.018
					C9.78,96.764,9.469,96.627,9.219,96.535z"/>
				<path fill="#F3482A" d="M27.246,96.535c0.831-0.283,1.592-0.795,2.223-1.48c0.159-0.178,0.319-0.371,0.526-0.482
					c0.139-0.074,0.305-0.104,0.45-0.055c-0.873,1.371-2.216,2.326-3.761,2.563c0-0.008-0.008-0.012-0.008-0.018
					C26.692,96.764,26.997,96.627,27.246,96.535z"/>
			</g>
			<path fill="#45474A" d="M14.393,27.344h7.681c0.928,0,1.829-0.111,2.693-0.322c-0.977-0.666-2.133-1.025-3.316-1.025h-6.427
				c-1.185,0-2.347,0.359-3.322,1.025C12.565,27.232,13.464,27.344,14.393,27.344z"/>
		</g>
	</g>
</g>
</svg>
